<svg xmlns="http://www.w3.org/2000/svg">
  <symbol id="ai-spark" viewBox="0 0 24 24">
    <defs>
        <linearGradient id="icon-ai-spark-main" x1="6" y1="4" x2="17" y2="17" gradientUnits="userSpaceOnUse">
          <stop stop-color="#FFBF77" />
          <stop offset="0.5" stop-color="#FF8C8A" />
          <stop offset="1" stop-color="#7B90FF" />
        </linearGradient>
      </defs>
    
      <path d="M12 3.5L13.95 8.05L18.5 10L13.95 11.95L12 16.5L10.05 11.95L5.5 10L10.05 8.05L12 3.5Z" fill="url(#icon-ai-spark-main)" />
      <circle cx="18.5" cy="6" r="2" fill="#8FDEFF" />
      <circle cx="18.75" cy="18.25" r="1.75" fill="#FF8EAA" />
  </symbol>
  <symbol id="agents" viewBox="0 0 24 24">
      <path d="M12 8.25V5.65" fill="none" stroke="currentColor" stroke-width="1.6" stroke-linecap="round" />
      <circle cx="12" cy="4.55" r="1.15" fill="none" stroke="currentColor" stroke-width="1.6" />
      <path d="M5.35 11.45H5.05C4.25 11.45 3.7 12 3.7 12.8V14.05C3.7 14.85 4.25 15.4 5.05 15.4H5.35" fill="none" stroke="currentColor" stroke-width="1.6" stroke-linecap="round" stroke-linejoin="round" />
      <path d="M18.65 11.45H18.95C19.75 11.45 20.3 12 20.3 12.8V14.05C20.3 14.85 19.75 15.4 18.95 15.4H18.65" fill="none" stroke="currentColor" stroke-width="1.6" stroke-linecap="round" stroke-linejoin="round" />
      <rect x="5.35" y="8.25" width="13.3" height="9.35" rx="4.35" fill="none" stroke="currentColor" stroke-width="1.65" />
      <path d="M7.85 17.65V18.25C7.85 19 8.4 19.55 9.15 19.55H10.4" fill="none" stroke="currentColor" stroke-width="1.55" stroke-linecap="round" stroke-linejoin="round" />
      <path d="M16.15 17.65V18.25C16.15 19 15.6 19.55 14.85 19.55H13.6" fill="none" stroke="currentColor" stroke-width="1.55" stroke-linecap="round" stroke-linejoin="round" />
      <circle cx="9.3" cy="12.75" r="0.95" fill="currentColor" />
      <circle cx="14.7" cy="12.75" r="0.95" fill="currentColor" />
      <path d="M10.15 15.15C11.05 15.95 12.95 15.95 13.85 15.15" fill="none" stroke="currentColor" stroke-width="1.45" stroke-linecap="round" />
  </symbol>
  <symbol id="translate" viewBox="0 0 24 24">
      <path d="M2.99983 13.9999C3.55211 13.9999 3.99983 14.4476 3.99983 14.9999C3.99983 15.9669 4.00251 16.3345 4.04865 16.6258C4.31985 18.3371 5.66256 19.6798 7.37385 19.951C7.66517 19.9972 8.03277 19.9999 8.99983 19.9999H9.24983C9.80212 19.9999 10.2498 20.4476 10.2498 20.9999C10.2497 21.552 9.80204 21.9999 9.24983 21.9999H8.99983C8.1092 21.9999 7.54729 22.0026 7.06135 21.9256C4.49414 21.519 2.48073 19.5055 2.07404 16.9383C1.99709 16.4524 1.99982 15.8905 1.99982 14.9999C1.99982 14.4477 2.44764 14 2.99983 13.9999ZM15.6385 10.8309C16.1654 9.67519 17.8324 9.67259 18.3602 10.8309L18.41 10.9501L21.9393 20.6581C22.1279 21.177 21.8605 21.7505 21.3416 21.9393C20.8228 22.1278 20.2492 21.8604 20.0604 21.3417L19.0272 18.4999H14.9735L13.9393 21.3417C13.7504 21.8604 13.1769 22.128 12.658 21.9393C12.1393 21.7505 11.8719 21.1769 12.0604 20.6581L13.3231 17.1844L15.5897 10.951L15.6385 10.8309ZM15.7 16.4999H18.2996L16.9998 12.9256L15.7 16.4999ZM6.68342 1.55162C7.20727 1.37701 7.77331 1.6597 7.94807 2.18346L8.38655 3.49986H11.9998C12.5521 3.49986 12.9998 3.94758 12.9998 4.49986C12.9997 5.05204 12.552 5.49986 11.9998 5.49986H11.1912C10.717 6.70677 10.0039 8.16843 8.80745 9.52037C9.72142 10.2406 10.8311 10.7913 12.1639 11.0135C12.7086 11.1043 13.0768 11.6193 12.9862 12.1639C12.8953 12.7084 12.3803 13.0768 11.8358 12.9862C10.0063 12.6812 8.51969 11.8922 7.3387 10.9032C6.2746 11.7352 4.94963 12.4591 3.28693 12.9579C2.75815 13.1162 2.20053 12.8157 2.04182 12.287C1.88333 11.7581 2.18397 11.2006 2.71272 11.0419C4.01358 10.6516 5.06496 10.1019 5.92268 9.46568C5.9017 9.44011 5.87988 9.41516 5.8592 9.38951C4.80052 8.07615 4.11995 6.64312 3.7469 5.49986H2.99983C2.44772 5.49975 1.99995 5.05197 1.99982 4.49986C1.99982 3.94765 2.44764 3.49998 2.99983 3.49986H6.27912L6.05159 2.81627C5.877 2.29251 6.15983 1.72649 6.68342 1.55162ZM14.9998 1.99986C15.8905 1.99986 16.4524 1.99715 16.9383 2.07408C19.5057 2.48071 21.519 4.49403 21.9256 7.06139C22.0026 7.54732 21.9998 8.10923 21.9998 8.99986C21.9997 9.55204 21.552 9.99986 20.9998 9.99986C20.4477 9.99975 20 9.55197 19.9998 8.99986C19.9998 8.03286 19.9971 7.66519 19.951 7.37389C19.6799 5.66245 18.3372 4.31983 16.6258 4.04869C16.3345 4.00258 15.9669 3.99986 14.9998 3.99986C14.4477 3.99975 14 3.55197 13.9998 2.99986C13.9998 2.44765 14.4476 1.99998 14.9998 1.99986ZM5.87287 5.49986C6.19927 6.3039 6.69619 7.2336 7.39045 8.1024C8.12345 7.25376 8.63856 6.3485 9.02327 5.49986H5.87287Z" fill="currentColor" />
  </symbol>
</svg>
