<svg width="28" height="28" viewBox="0 0 28 28" fill="none" xmlns="http://www.w3.org/2000/svg">
  <defs>
    <linearGradient id="ai-chat-stroke" x1="4" y1="5" x2="24" y2="24" gradientUnits="userSpaceOnUse">
      <stop stop-color="#41D1FF"/>
      <stop offset=".5" stop-color="#2F6BED"/>
      <stop offset="1" stop-color="#BD34FE"/>
    </linearGradient>
  </defs>
  <path d="M4.2 11.7c0-3.5 2.8-6.3 6.3-6.3h7c3.5 0 6.3 2.8 6.3 6.3v3.8c0 3.5-2.8 6.3-6.3 6.3h-6.7L6.2 24v-3.8a6.3 6.3 0 0 1-2-4.6v-3.9Z" stroke="url(#ai-chat-stroke)" stroke-width="2" stroke-linecap="round" stroke-linejoin="round"/>
  <path d="M9.1 13.1c1-1.4 2-1.4 3 0s2 1.4 3 0 2-1.4 3 0" stroke="#344054" stroke-width="1.85" stroke-linecap="round"/>
  <path d="M9.1 16.9h4.2M16 16.9h2.1" stroke="#344054" stroke-width="1.85" stroke-linecap="round"/>
</svg>
