<svg width="28" height="28" viewBox="0 0 28 28" fill="none" xmlns="http://www.w3.org/2000/svg">
  <defs>
    <linearGradient id="doc-writing-stroke" x1="5" y1="4" x2="24" y2="25" gradientUnits="userSpaceOnUse">
      <stop stop-color="#2F6BED"/>
      <stop offset=".58" stop-color="#12B7A8"/>
      <stop offset="1" stop-color="#7C4DFF"/>
    </linearGradient>
  </defs>
  <path d="M8 4.8h9.2L22 9.6V23a2.2 2.2 0 0 1-2.2 2.2H8A2.2 2.2 0 0 1 5.8 23V7A2.2 2.2 0 0 1 8 4.8Z" stroke="url(#doc-writing-stroke)" stroke-width="2.1" stroke-linejoin="round"/>
  <path d="M17.2 5.2v4.6h4.5" stroke="url(#doc-writing-stroke)" stroke-width="2.1" stroke-linejoin="round"/>
  <path d="M9.5 13h8M9.5 16.5H16" stroke="#344054" stroke-width="1.8" stroke-linecap="round"/>
  <path d="m15.8 21.4 4.7-4.7a1.4 1.4 0 0 1 2 2l-4.7 4.7-2.5.5.5-2.5Z" fill="#12B7A8"/>
</svg>
